<?xml version="1.0" standalone="no"?>
<!DOCTYPE svg PUBLIC "-//W3C//DTD SVG 1.1//EN" "http://www.w3.org/Graphics/SVG/1.1/DTD/svg11.dtd" >
<svg xmlns="http://www.w3.org/2000/svg">
<metadata></metadata>
<defs>
<font id="atlantabook" horiz-adv-x="1135" >
<font-face units-per-em="2048" ascent="1638" descent="-410" />
<missing-glyph horiz-adv-x="567" />
<glyph horiz-adv-x="2048" />
<glyph horiz-adv-x="2048" />
<glyph unicode="&#xd;" horiz-adv-x="2048" />
<glyph unicode=" "  horiz-adv-x="567" />
<glyph unicode="&#x09;" horiz-adv-x="567" />
<glyph unicode="&#xa0;" horiz-adv-x="567" />
<glyph unicode="!" horiz-adv-x="604" d="M219 0v246h164v-246h-164zM219 434v1082h164v-1082h-164z" />
<glyph unicode="&#x22;" horiz-adv-x="633" d="M90 983v573h164v-573h-164zM377 983v573h164v-573h-164z" />
<glyph unicode="#" d="M55 410v143h236v471h-236v143h236v349h164v-349h225v349h164v-349h236v-143h-236v-471h236v-143h-236v-410h-164v410h-225v-410h-164v410h-236zM455 553h225v471h-225v-471z" />
<glyph unicode="$" d="M119 424v26h164v-26q0 -137 79.5 -221t205.5 -84q124 0 204 78t80 202q0 103 -59.5 177t-165.5 100l-141 35q-166 41 -256.5 152t-90.5 274q0 146 103 260t254 137v186h143v-184q158 -28 257 -146.5t99 -277.5v-41h-164v41q0 131 -72 208t-191 77q-113 0 -189 -73.5 t-76 -186.5q0 -101 56 -170t159 -95l146 -37q170 -44 261 -157t91 -279q0 -157 -104 -274.5t-273 -143.5v-227h-143v227q-166 26 -271.5 150t-105.5 293z" />
<glyph unicode="%" horiz-adv-x="1587" d="M45 1194q0 140 106.5 243t250.5 103q143 0 249.5 -103.5t106.5 -242.5t-107 -244.5t-249 -105.5q-143 0 -250 105t-107 245zM201 1194q0 -84 58.5 -145.5t142.5 -61.5q83 0 141.5 61.5t58.5 145.5t-58 143.5t-142 59.5q-85 0 -143 -59.5t-58 -143.5zM226 0l962 1516h169 l-962 -1516h-169zM825 325q0 140 106.5 243.5t250.5 103.5q142 0 249 -104t107 -243t-107 -244.5t-249 -105.5q-143 0 -250 105t-107 245zM981 325q0 -84 58.5 -145.5t142.5 -61.5q83 0 141.5 61.5t58.5 145.5t-58 143.5t-142 59.5q-85 0 -143 -59.5t-58 -143.5z" />
<glyph unicode="&#x26;" horiz-adv-x="1550" d="M137 407q0 106 54 203.5t149 161.5l157 102l-102 125q-78 96 -78 212q0 131 107 230t250 99q133 0 239 -96q111 -102 111 -244q0 -73 -42.5 -148.5t-107.5 -115.5l-145 -99l268 -336l160 242h186l-243 -367l311 -376h-199l-198 245l-51 -74q-139 -196 -390 -196 q-193 0 -318 132q-118 125 -118 300zM301 407q0 -120 79.5 -204.5t192.5 -84.5q163 0 262 139l74 113l-313 385l-162 -106q-63 -41 -98 -105t-35 -137zM481 1213q0 -71 43 -126l105 -131l135 84q42 25 68 69t26 91q0 82 -54 139.5t-130 57.5q-81 0 -137 -54t-56 -130z" />
<glyph unicode="'" horiz-adv-x="406" d="M121 983v573h164v-573h-164z" />
<glyph unicode="(" horiz-adv-x="756" d="M131 758q0 278 130.5 522.5t361.5 398.5l82 -127q-197 -134 -311 -379q-99 -212 -99 -415t99 -416q114 -244 311 -379l-82 -127q-231 155 -361.5 399.5t-130.5 522.5z" />
<glyph unicode=")" horiz-adv-x="756" d="M49 -37q197 135 311 379q99 213 99 416t-99 415q-114 245 -311 379l82 127q231 -154 361.5 -398.5t130.5 -522.5t-130.5 -522.5t-361.5 -399.5z" />
<glyph unicode="*" horiz-adv-x="870" d="M106 1168v123l246 -31v-62zM217 975l150 199l53 -31l-96 -230zM217 1483l107 61l96 -229l-53 -31zM449 1143l53 31l149 -199l-106 -62zM449 1315l96 229l106 -61l-149 -199zM516 1198v62l246 31v-123z" />
<glyph unicode="+" horiz-adv-x="1241" d="M105 543v153h440v441h153v-441h440v-153h-440v-441h-153v441h-440z" />
<glyph unicode="," horiz-adv-x="567" d="M78 0q44 0 73 29t29 73v144h205v-144q0 -116 -85.5 -201t-201.5 -85h-20v184z" />
<glyph unicode="-" horiz-adv-x="680" d="M66 543v133h548v-133h-548z" />
<glyph unicode="." horiz-adv-x="567" d="M180 0v246h205v-246h-205z" />
<glyph unicode="/" horiz-adv-x="895" d="M80 -266l600 1782h133l-600 -1782h-133z" />
<glyph unicode="0" d="M76 497v521q0 227 139.5 374.5t352.5 147.5q212 0 351.5 -148t139.5 -374v-521q0 -226 -139.5 -374t-351.5 -148q-213 0 -352.5 147.5t-139.5 374.5zM240 497q0 -163 94 -271t234 -108t233.5 108.5t93.5 270.5v521q0 162 -93.5 270.5t-233.5 108.5t-234 -108t-94 -271 v-521z" />
<glyph unicode="1" d="M109 1213l459 303h143v-1516h-164v1330l-362 -241z" />
<glyph unicode="2" d="M92 0v143l637 617q65 63 101 144t36 165q0 145 -83 236.5t-216 91.5t-216 -97t-83 -252v-41h-164v41q0 214 132 353t331 139q200 0 331.5 -132.5t131.5 -338.5q0 -233 -203 -430l-512 -496h695v-143h-918z" />
<glyph unicode="3" d="M76 436h164q0 -137 93.5 -227.5t234.5 -90.5q140 0 233.5 90.5t93.5 227.5q0 147 -95 230.5t-263 83.5h-31v143h31q138 0 217.5 69t79.5 187q0 107 -76 177.5t-190 70.5t-190.5 -72.5t-76.5 -179.5v-27h-164v27q0 168 124 281.5t307 113.5t306 -111.5t123 -279.5 q0 -102 -51 -188t-135 -131q111 -48 179.5 -156t68.5 -238q0 -197 -141 -329t-350 -132q-210 0 -351 132t-141 329z" />
<glyph unicode="4" d="M43 348v144l682 1024h164v-1024h219v-144h-219v-348h-164v348h-682zM225 492h500v749z" />
<glyph unicode="5" d="M43 348h176q39 -102 136 -166t212 -64q158 0 269.5 111.5t111.5 270.5q0 158 -109 269.5t-264 111.5q-191 0 -313 -152h-125v787h875v-143h-711v-431q52 37 129.5 59.5t153.5 22.5q104 0 200.5 -39.5t170.5 -111.5q157 -154 157 -373q0 -106 -42 -202.5t-120 -170.5 q-77 -73 -176 -112.5t-207 -39.5q-178 0 -326 104.5t-198 268.5z" />
<glyph unicode="6" d="M47 475q0 99 40.5 205t139.5 262l367 574h185l-365 -572q71 31 154 31q222 0 370.5 -143t148.5 -357q0 -213 -148.5 -356.5t-370.5 -143.5q-223 0 -372 143t-149 357zM211 475q0 -154 101.5 -255.5t255.5 -101.5q153 0 254.5 101.5t101.5 255.5q0 153 -101.5 254.5 t-254.5 101.5q-154 0 -255.5 -101.5t-101.5 -254.5z" />
<glyph unicode="7" d="M82 1373v143h962v-143l-552 -1373h-177l553 1373h-786z" />
<glyph unicode="8" d="M76 436q0 132 64 240t169 154q-80 53 -126 137t-46 182q0 168 123.5 279.5t307.5 111.5q183 0 306 -111.5t123 -279.5q0 -98 -46 -182.5t-125 -136.5q105 -46 169 -154.5t64 -239.5q0 -197 -141 -329t-350 -132q-210 0 -351 132t-141 329zM240 436q0 -137 93.5 -227.5 t234.5 -90.5q140 0 233.5 90.5t93.5 227.5q0 142 -89.5 228t-237.5 86q-149 0 -238.5 -86t-89.5 -228zM301 1149q0 -114 74 -185t193 -71q118 0 192 71t74 185q0 107 -76 177.5t-190 70.5q-115 0 -191 -70.5t-76 -177.5z" />
<glyph unicode="9" d="M47 1040q0 213 149.5 356.5t371.5 143.5t370.5 -143t148.5 -357q0 -100 -40.5 -206.5t-138.5 -259.5l-367 -574h-185l365 572q-71 -31 -153 -31q-223 0 -372 143t-149 356zM211 1040q0 -154 101.5 -255t255.5 -101q153 0 254.5 101.5t101.5 254.5q0 154 -101.5 255.5 t-254.5 101.5q-154 0 -255.5 -101.5t-101.5 -255.5z" />
<glyph unicode=":" horiz-adv-x="567" d="M180 0v246h205v-246h-205zM180 872v246h205v-246h-205z" />
<glyph unicode=";" horiz-adv-x="567" d="M78 0q44 0 73 29t29 73v144h205v-144q0 -116 -85.5 -201t-201.5 -85h-20v184zM180 872v246h205v-246h-205z" />
<glyph unicode="&#x3c;" horiz-adv-x="1241" d="M102 549v133l1041 475v-154l-850 -389l850 -389v-153z" />
<glyph unicode="=" horiz-adv-x="1241" d="M104 338v154h1035v-154h-1035zM104 737v154h1035v-154h-1035z" />
<glyph unicode="&#x3e;" horiz-adv-x="1241" d="M98 72v153l850 389l-850 389v154l1041 -475v-133z" />
<glyph unicode="?" horiz-adv-x="1210" d="M295 1479q109 61 248 61q222 0 373 -141q157 -146 157 -373q0 -207 -149 -355q-136 -136 -320 -155v-82h-164v221h103q152 0 259 109t107 262t-107 262t-259 109q-49 0 -98.5 -13t-78.5 -34zM440 0v246h164v-246h-164z" />
<glyph unicode="@" horiz-adv-x="1776" d="M74 758q0 165 64 310t184 254q114 105 264 161.5t313 56.5q166 0 310 -53.5t250 -154.5q111 -104 169 -248t58 -314q0 -194 -83 -304t-224 -110q-56 0 -108 39t-67 90q-54 -61 -141.5 -99t-173.5 -38q-168 0 -289 119.5t-121 288.5q0 168 121 287.5t289 119.5 q164 0 270 -96v59h148v-512q0 -59 23.5 -92t66.5 -33q55 0 90 72t35 192q0 296 -169 470t-454 174q-132 0 -252 -46t-212 -132q-95 -89 -146 -207.5t-51 -253.5q0 -281 189 -461q91 -87 212.5 -133t259.5 -46q171 0 301 74v-153q-64 -29 -146.5 -46.5t-154.5 -17.5 q-175 0 -327 56t-264 162q-114 107 -174 252t-60 313zM627 756q0 -117 77 -197t185 -80q116 0 193 77.5t77 199.5q0 121 -77 198.5t-193 77.5q-108 0 -185 -79.5t-77 -196.5z" />
<glyph unicode="A" horiz-adv-x="1516" d="M33 0l643 1516h164l643 -1516h-178l-199 471h-696l-199 -471h-178zM471 614h573l-286 677z" />
<glyph unicode="B" horiz-adv-x="1176" d="M147 0v1516h441q196 0 318 -112q112 -104 112 -247q0 -201 -174 -315q109 -43 183.5 -153t74.5 -238q0 -198 -140.5 -324.5t-361.5 -126.5h-453zM311 143h289q148 0 243 87t95 221q0 133 -95 220t-243 87h-289v-615zM311 901h277q118 0 192 66t74 170q0 103 -74.5 169.5 t-191.5 66.5h-277v-472z" />
<glyph unicode="C" horiz-adv-x="1665" d="M86 757q0 159 59.5 302t170.5 253q112 110 260 169t313 59q237 0 430 -116.5t291 -317.5h-186q-87 136 -229 213.5t-306 77.5q-128 0 -245 -48.5t-207 -138.5t-138.5 -207.5t-48.5 -245.5t48.5 -245t138.5 -207t207 -138.5t245 -48.5q164 0 306 77.5t229 213.5h186 q-98 -201 -291 -317.5t-430 -116.5q-164 0 -312 59t-260 169q-111 110 -171 253t-60 301z" />
<glyph unicode="D" horiz-adv-x="1524" d="M147 0v1516h471q179 0 332 -57t266 -165q107 -104 164.5 -242.5t57.5 -294.5q0 -155 -57.5 -293t-164.5 -242q-113 -108 -266 -165t-332 -57h-471zM311 143h307q292 0 477 178q86 84 132.5 196.5t46.5 239.5q0 128 -46.5 240.5t-132.5 196.5q-185 179 -477 179h-307 v-1230z" />
<glyph unicode="E" horiz-adv-x="1098" d="M147 0v1516h873v-143h-709v-513h627v-143h-627v-574h709v-143h-873z" />
<glyph unicode="F" horiz-adv-x="993" d="M147 0v1516h834v-143h-670v-513h594v-143h-594v-717h-164z" />
<glyph unicode="G" horiz-adv-x="1786" d="M86 757q0 159 59.5 302.5t170.5 252.5q112 110 261 169t316 59q237 0 430.5 -115.5t296.5 -318.5h-186q-90 137 -233 214t-308 77q-130 0 -247.5 -48.5t-208.5 -138.5q-90 -90 -138.5 -207t-48.5 -246q0 -128 48.5 -245t138.5 -207q91 -90 208.5 -138.5t247.5 -48.5 q221 0 395.5 135t227.5 341h-660v143h842q-3 -154 -63 -293t-170 -245q-112 -108 -259 -166t-313 -58q-167 0 -316 59t-261 169q-111 109 -170.5 252t-59.5 302z" />
<glyph unicode="H" horiz-adv-x="1399" d="M147 0v1516h164v-656h774v656h164v-1516h-164v717h-774v-717h-164z" />
<glyph unicode="I" horiz-adv-x="463" d="M150 0v1516h163v-1516h-163z" />
<glyph unicode="J" horiz-adv-x="987" d="M18 395v59h164v-59q0 -123 69 -200t177 -77t177 77t69 200v1121h164v-1121q0 -186 -115 -303t-295 -117t-295 117t-115 303z" />
<glyph unicode="K" horiz-adv-x="1210" d="M147 0v1516h164v-685l645 685h213l-680 -722l701 -794h-217l-662 749v-749h-164z" />
<glyph unicode="L" horiz-adv-x="946" d="M147 0v1516h164v-1373h623v-143h-787z" />
<glyph unicode="M" horiz-adv-x="1882" d="M147 0v1516h246l547 -1309l547 1309h246v-1516h-164v1309l-547 -1309h-164l-547 1309v-1309h-164z" />
<glyph unicode="N" horiz-adv-x="1516" d="M147 0v1516h246l811 -1342v1342h164v-1516h-246l-811 1342v-1342h-164z" />
<glyph unicode="O" horiz-adv-x="1780" d="M86 757q0 159 59.5 302t170.5 253q112 110 260 169t313 59t313 -59t260 -169q111 -110 170.5 -253t59.5 -302q0 -158 -60 -301t-171 -253q-112 -110 -260 -169t-312 -59t-312 59t-260 169q-111 110 -171 253t-60 301zM250 757q0 -128 48.5 -245t138.5 -207t207 -138.5 t245 -48.5t245 48.5t207 139.5q90 90 138.5 207t48.5 244q0 128 -48.5 245t-138.5 207q-90 91 -207 139.5t-245 48.5t-245 -48.5t-207 -138.5t-138.5 -207.5t-48.5 -245.5z" />
<glyph unicode="P" horiz-adv-x="1212" d="M147 0v1516h520q221 0 356.5 -125t135.5 -326q0 -200 -135.5 -325.5t-356.5 -125.5h-356v-614h-164zM311 758h356q144 0 236 86.5t92 220.5t-92 221t-236 87h-356v-615z" />
<glyph unicode="Q" horiz-adv-x="1784" d="M86 757q0 159 59.5 302t170.5 253q112 110 260 169t313 59t313 -59t260 -169q111 -110 170.5 -253t59.5 -302q0 -180 -77 -340.5t-210 -259.5q41 -14 98 -14h185v-143h-185q-156 0 -249 57q-68 -36 -169.5 -59t-195.5 -23q-164 0 -312 59t-260 169q-111 110 -171 253 t-60 301zM250 757q0 -161 102 -352q69 77 168 121.5t207 44.5q235 0 408 -182l135 -143q121 87 189.5 221.5t68.5 289.5q0 128 -48.5 245t-138.5 207q-90 91 -207 139.5t-245 48.5t-245 -48.5t-207 -138.5t-138.5 -207.5t-48.5 -245.5zM449 297q84 -85 200.5 -132t241.5 -47 q119 0 240 48l-140 149q-49 53 -119 83t-145 30q-82 0 -154.5 -34.5t-123.5 -96.5z" />
<glyph unicode="R" horiz-adv-x="1243" d="M147 0v1516h533q213 0 352 -125.5t139 -315.5t-139 -315t-352 -125h-39l540 -635h-214l-656 768v-768h-164zM311 778h369q145 0 236.5 83t91.5 214q0 132 -91 215t-237 83h-369v-595z" />
<glyph unicode="S" horiz-adv-x="1020" d="M61 423v27h164v-27q0 -136 80 -220.5t205 -84.5q124 0 204.5 78.5t80.5 202.5q0 103 -60 176.5t-166 99.5l-141 35q-165 41 -255.5 152t-90.5 275q0 165 126 284t302 119q181 0 304.5 -123.5t123.5 -304.5v-41h-164v41q0 131 -72.5 208t-191.5 77q-112 0 -188 -74 t-76 -186q0 -101 56 -170t159 -95l145 -37q170 -44 261 -156.5t91 -279.5q0 -179 -129.5 -301.5t-318.5 -122.5q-190 0 -319.5 129t-129.5 319z" />
<glyph unicode="T" horiz-adv-x="872" d="M20 1373v143h832v-143h-334v-1373h-164v1373h-334z" />
<glyph unicode="U" horiz-adv-x="1341" d="M147 518v998h164v-998q0 -182 98.5 -291t260.5 -109q161 0 259.5 109.5t98.5 290.5v998h164v-998q0 -235 -148.5 -389t-373.5 -154q-226 0 -374.5 154t-148.5 389z" />
<glyph unicode="V" horiz-adv-x="1438" d="M20 1516h177l522 -1283l522 1283h176l-616 -1516h-164z" />
<glyph unicode="W" horiz-adv-x="1966" d="M20 1516h170l349 -1225l362 1225h164l362 -1225l349 1225h170l-430 -1516h-164l-369 1241l-369 -1241h-163z" />
<glyph unicode="X" horiz-adv-x="1247" d="M29 0l495 774l-475 742h195l379 -590l378 590h195l-475 -742l496 -774h-195l-399 622l-400 -622h-194z" />
<glyph unicode="Y" horiz-adv-x="1212" d="M20 1516h189l397 -711l397 711h189l-504 -902v-614h-164v614z" />
<glyph unicode="Z" horiz-adv-x="983" d="M35 0v143l725 1230h-684v143h874v-143l-725 -1230h725v-143h-915z" />
<glyph unicode="[" horiz-adv-x="719" d="M297 -164v1843h369v-143h-205v-1556h205v-144h-369z" />
<glyph unicode="\" horiz-adv-x="1239" d="M174 1516h143l635 -1516h-143z" />
<glyph unicode="]" horiz-adv-x="719" d="M51 -20h205v1556h-205v143h369v-1843h-369v144z" />
<glyph unicode="^" horiz-adv-x="1241" d="M272 1065l297 451h103l297 -451h-197l-151 230l-152 -230h-197z" />
<glyph unicode="_" horiz-adv-x="1024" d="M-10 -137h1042v-119h-1042v119z" />
<glyph unicode="`" horiz-adv-x="774" d="M135 1403l53 143l471 -163l-53 -144z" />
<glyph unicode="a" horiz-adv-x="1399" d="M82 559q0 119 45 226.5t129 189.5q82 81 189.5 124.5t224.5 43.5q125 0 237 -50t195 -142v167h155v-1118h-155v167q-83 -92 -195 -142t-237 -50q-117 0 -224.5 43.5t-189.5 124.5q-84 82 -129 189.5t-45 226.5zM238 559q0 -192 123 -318.5t309 -126.5t309 127t123 318 t-123 318t-309 127t-309 -126.5t-123 -318.5z" />
<glyph unicode="b" horiz-adv-x="1397" d="M139 0v1516h156v-565q83 92 195 142t237 50q117 0 224.5 -43.5t189.5 -124.5q84 -82 129 -189.5t45 -226.5t-45 -226.5t-129 -189.5q-82 -81 -189.5 -124.5t-224.5 -43.5q-125 0 -237 50t-195 142v-167h-156zM295 559q0 -191 123 -318t309 -127t309 126.5t123 318.5 t-123 318.5t-309 126.5t-309 -127t-123 -318z" />
<glyph unicode="c" horiz-adv-x="1325" d="M82 559q0 249 170 416q171 168 430 168q183 0 324 -85t217 -239h-174q-123 185 -367 185q-195 0 -319.5 -125t-124.5 -320t124.5 -320t319.5 -125q115 0 207.5 44.5t151.5 127.5h176q-80 -150 -218.5 -230.5t-316.5 -80.5q-259 0 -430 168q-170 167 -170 416z" />
<glyph unicode="d" horiz-adv-x="1403" d="M82 559q0 119 45 226.5t129 189.5q82 81 189.5 124.5t224.5 43.5q125 0 237 -50t195 -142v565h155v-1516h-155v167q-83 -92 -195 -142t-237 -50q-117 0 -224.5 43.5t-189.5 124.5q-84 82 -129 189.5t-45 226.5zM238 559q0 -192 123 -318.5t309 -126.5t309 127t123 318 t-123 318t-309 127t-309 -126.5t-123 -318.5z" />
<glyph unicode="e" horiz-adv-x="1331" d="M82 559q0 120 44 227t126 189q82 81 190 124.5t228 43.5q250 0 417 -168q170 -172 170 -438h-1019q5 -181 128 -302t304 -121q131 0 235.5 68t156.5 187h168q-64 -182 -215 -288t-345 -106q-120 0 -228 43.5t-190 124.5q-82 82 -126 189t-44 227zM252 676h835 q-30 142 -145.5 235t-271.5 93q-157 0 -272.5 -93t-145.5 -235z" />
<glyph unicode="f" horiz-adv-x="643" d="M35 979v139h184v29q0 170 110 281.5t279 111.5v-139q-104 0 -168.5 -70t-64.5 -184v-29h233v-139h-233v-979h-156v979h-184z" />
<glyph unicode="g" horiz-adv-x="1378" d="M82 559q0 119 45 226.5t129 189.5q82 81 189.5 124.5t224.5 43.5q125 0 237 -50t195 -142v167h155v-1024q0 -105 -40 -200t-115 -167q-166 -161 -432 -161q-194 0 -338 93t-205 259h172q41 -96 141.5 -154.5t229.5 -58.5q188 0 310 110.5t122 278.5v73q-83 -92 -195 -142 t-237 -50q-117 0 -224.5 43.5t-189.5 124.5q-84 82 -129 189.5t-45 226.5zM238 559q0 -192 123 -318.5t309 -126.5t309 127t123 318t-123 318t-309 127t-309 -126.5t-123 -318.5z" />
<glyph unicode="h" horiz-adv-x="1249" d="M141 0v1516h156v-522q147 149 356 149q207 0 339 -139.5t132 -356.5v-647h-155v647q0 156 -92.5 256.5t-235.5 100.5q-149 0 -246.5 -100.5t-97.5 -256.5v-647h-156z" />
<glyph unicode="i" horiz-adv-x="410" d="M127 0v1118h156v-1118h-156zM127 1327v189h156v-189h-156z" />
<glyph unicode="j" horiz-adv-x="416" d="M-106 -295q104 0 168.5 70t64.5 184v1159h156v-1159q0 -170 -110 -281.5t-279 -111.5v139zM127 1327v189h156v-189h-156z" />
<glyph unicode="k" horiz-adv-x="1028" d="M111 0v1516h155v-920l502 522h205l-519 -539l533 -579h-211l-510 557v-557h-155z" />
<glyph unicode="l" horiz-adv-x="410" d="M127 0v1516h156v-1516h-156z" />
<glyph unicode="m" horiz-adv-x="1921" d="M141 0v1118h156v-114q145 139 317 139q250 0 369 -207q67 99 164 153t211 54q198 0 318 -132t120 -345v-666h-156v666q0 147 -81 242.5t-207 95.5q-131 0 -218 -96.5t-87 -241.5v-666h-156v666q0 148 -80.5 243t-208.5 95q-131 0 -218 -97.5t-87 -240.5v-666h-156z" />
<glyph unicode="n" horiz-adv-x="1249" d="M141 0v1118h156v-124q147 149 356 149q207 0 339 -139.5t132 -356.5v-647h-155v647q0 156 -92.5 256.5t-235.5 100.5q-149 0 -246.5 -100.5t-97.5 -256.5v-647h-156z" />
<glyph unicode="o" horiz-adv-x="1341" d="M82 559q0 120 44 227t126 189q82 81 190 124.5t228 43.5t227.5 -43.5t189.5 -124.5q82 -82 126 -189t44 -227t-44 -227t-126 -189q-82 -81 -189.5 -124.5t-227.5 -43.5t-228 43.5t-190 124.5q-82 82 -126 189t-44 227zM238 559q0 -192 123 -318.5t309 -126.5t309 127 t123 318t-123 318t-309 127t-309 -126.5t-123 -318.5z" />
<glyph unicode="p" horiz-adv-x="1397" d="M139 -410v1528h156v-167q83 92 195 142t237 50q117 0 224.5 -43.5t189.5 -124.5q84 -82 129 -189.5t45 -226.5t-45 -226.5t-129 -189.5q-82 -81 -189.5 -124.5t-224.5 -43.5q-125 0 -237 50t-195 142v-577h-156zM295 559q0 -191 123 -318t309 -127t309 126.5t123 318.5 t-123 318.5t-309 126.5t-309 -127t-123 -318z" />
<glyph unicode="q" horiz-adv-x="1397" d="M82 559q0 119 45 226.5t129 189.5q82 81 189.5 124.5t224.5 43.5q125 0 237 -50t195 -142v167h155v-1528h-155v577q-83 -92 -195 -142t-237 -50q-117 0 -224.5 43.5t-189.5 124.5q-84 82 -129 189.5t-45 226.5zM238 559q0 -192 123 -318.5t309 -126.5t309 127t123 318 t-123 318t-309 127t-309 -126.5t-123 -318.5z" />
<glyph unicode="r" horiz-adv-x="616" d="M141 0v1118h156v-124q147 149 344 149v-139q-149 0 -246.5 -100.5t-97.5 -256.5v-647h-156z" />
<glyph unicode="s" horiz-adv-x="795" d="M49 303v45h156v-45q0 -82 54.5 -135.5t137.5 -53.5t138 53.5t55 135.5q0 139 -160 188l-97 29q-136 40 -197.5 116.5t-61.5 203.5q0 114 90 205q95 98 233 98t234 -98q90 -91 90 -205v-41h-156v41q0 70 -48.5 117t-119.5 47t-119.5 -47t-48.5 -117q0 -126 148 -170 l108 -33q122 -37 191 -126t69 -208q0 -135 -102 -231.5t-246 -96.5q-145 0 -246.5 96t-101.5 232z" />
<glyph unicode="t" horiz-adv-x="694" d="M18 979v139h250v316h156v-316h250v-139h-250v-979h-156v979h-250z" />
<glyph unicode="u" horiz-adv-x="1245" d="M129 471v647h156v-647q0 -155 92.5 -256t234.5 -101q149 0 246.5 100.5t97.5 256.5v647h156v-1118h-156v124q-147 -149 -356 -149q-207 0 -339 139.5t-132 356.5z" />
<glyph unicode="v" d="M14 1118h170l383 -917l383 917h170l-471 -1118h-164z" />
<glyph unicode="w" horiz-adv-x="1702" d="M14 1118h164l295 -880l287 880h180l287 -880l295 880h164l-375 -1118h-164l-297 903l-297 -903h-164z" />
<glyph unicode="x" horiz-adv-x="983" d="M20 0l379 575l-358 543h186l265 -401l264 401h186l-358 -543l379 -575h-187l-284 432l-285 -432h-187z" />
<glyph unicode="y" horiz-adv-x="1098" d="M14 1118h170l365 -917l364 917h170l-526 -1296q-48 -121 -160 -188.5t-262 -67.5h-61v139h61q209 0 283 184l47 115z" />
<glyph unicode="z" horiz-adv-x="870" d="M33 0v139l612 840h-571v139h764v-139l-613 -840h613v-139h-805z" />
<glyph unicode="{" horiz-adv-x="719" d="M154 686v143h96q19 0 33 14t14 33v636q0 68 49.5 117.5t118.5 49.5h201v-143h-121q-36 0 -60 -24t-24 -60v-562q0 -55 -38.5 -93.5t-92.5 -38.5q54 0 92.5 -39t38.5 -94v-562q0 -35 24.5 -59t59.5 -24h121v-144h-201q-69 0 -118.5 49.5t-49.5 118.5v635q0 19 -14 33 t-33 14h-96z" />
<glyph unicode="|" horiz-adv-x="1376" d="M623 0v1514h131v-1514h-131z" />
<glyph unicode="}" horiz-adv-x="719" d="M51 -20h121q35 0 59.5 24t24.5 59v562q0 55 39 94t94 39q-55 0 -94 38.5t-39 93.5v562q0 36 -24 60t-60 24h-121v143h201q69 0 118.5 -49.5t49.5 -117.5v-636q0 -19 14.5 -33t34.5 -14h94v-143h-94q-20 0 -34.5 -14t-14.5 -33v-635q0 -69 -49.5 -118.5t-118.5 -49.5h-201 v144z" />
<glyph unicode="~" horiz-adv-x="1241" d="M209 734q49 59 116.5 91.5t141.5 32.5q64 0 143 -37l88 -39q50 -22 78 -22q98 0 156 84l102 -113q-50 -59 -117.5 -92t-140.5 -33q-60 0 -147 39l-80 35q-52 25 -82 25q-99 0 -156 -85z" />
<glyph unicode="&#xa1;" horiz-adv-x="604" d="M219 -398v1082h164v-1082h-164zM219 872v246h164v-246h-164z" />
<glyph unicode="&#xa2;" d="M61 758q0 191 128.5 334.5t326.5 175.5v248h143v-248q156 -20 278.5 -124t161.5 -253h-168q-41 110 -133.5 175t-207.5 65q-152 0 -258.5 -108t-106.5 -265q0 -156 106 -262.5t259 -106.5q112 0 205 65t134 171h170q-41 -148 -161 -249.5t-279 -123.5v-252h-143v254 q-193 24 -324 168.5t-131 335.5z" />
<glyph unicode="&#xa3;" d="M56 0v143h143v619h-143v143h143v123q0 235 157 379q145 133 354 133q97 0 195 -42v-167q-39 30 -92.5 48t-102.5 18q-153 0 -250.5 -102.5t-97.5 -266.5v-123h451v-143h-451v-619h428q71 0 118.5 46.5t47.5 117.5h160q-7 -134 -98 -220.5t-228 -86.5h-734z" />
<glyph unicode="&#xa4;" d="M117 450l115 115q-74 106 -74 234t74 235l-115 115l102 100l115 -114q104 73 234 73q129 0 235 -73l115 114l100 -100l-115 -115q74 -107 74 -235t-74 -234l115 -115l-100 -102l-115 115q-107 -74 -235 -74t-234 74l-115 -115zM301 799q0 -111 78 -189t189 -78 q110 0 188 78t78 189q0 110 -78 188t-188 78q-111 0 -189 -78t-78 -188z" />
<glyph unicode="&#xa5;" d="M55 1516h184l328 -666l328 666h184l-369 -717h308v-144h-369v-143h369v-143h-369v-369h-164v369h-369v143h369v143h-369v144h308z" />
<glyph unicode="&#xa6;" horiz-adv-x="1376" d="M623 0v604h133v-604h-133zM623 912v604h133v-604h-133z" />
<glyph unicode="&#xa7;" horiz-adv-x="1260" d="M170 852q0 83 42.5 162t113.5 125q-76 88 -76 223q0 153 111.5 260t267.5 107q163 0 273.5 -106t110.5 -269h-165q7 93 -57 162t-162 69q-97 0 -156 -61.5t-59 -161.5q0 -73 47.5 -131t124.5 -80l215 -62q144 -42 227.5 -146t83.5 -241q0 -88 -37.5 -170.5t-99.5 -130.5 q32 -41 50.5 -103.5t18.5 -125.5q0 -162 -121.5 -273.5t-291.5 -111.5q-184 0 -301.5 110.5t-118.5 290.5h164q1 -121 70 -189.5t186 -68.5q116 0 183 64.5t67 177.5q0 82 -53 155t-129 95l-254 71q-127 37 -201 134t-74 225zM334 852q0 -170 174 -217l219 -62 q91 -26 138 -61q34 22 58.5 78t24.5 112q0 87 -49.5 151t-138.5 89l-239 70q-43 12 -70 32q-47 -20 -82 -77t-35 -115z" />
<glyph unicode="&#xa8;" horiz-adv-x="756" d="M131 1270v164h164v-164h-164zM459 1270v164h164v-164h-164z" />
<glyph unicode="&#xa9;" horiz-adv-x="1530" d="M-18 758q0 156 59.5 299.5t169.5 253.5t253 169.5t300 59.5q156 0 299.5 -59.5t253.5 -169.5t169.5 -253.5t59.5 -299.5q0 -157 -59.5 -300.5t-169.5 -253.5t-253.5 -169.5t-299.5 -59.5q-157 0 -300 59.5t-253 169.5t-169.5 253.5t-59.5 300.5zM72 758 q0 -138 52.5 -264.5t150.5 -224.5t224.5 -151t264.5 -53t264.5 53t224.5 151t150.5 224.5t52.5 264.5t-52.5 264.5t-150.5 224.5t-224.5 150.5t-264.5 52.5t-264.5 -52.5t-224.5 -150.5t-150.5 -224.5t-52.5 -264.5zM217 758q0 222 157 376q158 156 390 156 q179 0 321.5 -100t196.5 -267h-150q-59 115 -155 177.5t-213 62.5q-160 0 -279 -112q-125 -118 -125 -293t125 -294q119 -112 279 -112q121 0 217 63t149 177h152q-56 -167 -198 -267t-320 -100q-231 0 -390 156q-76 74 -116.5 172t-40.5 205z" />
<glyph unicode="&#xaa;" horiz-adv-x="756" d="M29 717v102h696v-102h-696zM33 1249q0 134 94.5 228t228.5 94q121 0 213 -82v68h111v-615h-111v68q-89 -82 -213 -82q-134 0 -228.5 94t-94.5 227zM143 1249q0 -95 60.5 -157t152.5 -62q91 0 152 62.5t61 156.5t-61 156.5t-152 62.5q-92 0 -152.5 -62t-60.5 -157z" />
<glyph unicode="&#xab;" horiz-adv-x="870" d="M70 614l225 410h147l-221 -410l225 -409h-151zM406 614l225 410h147l-221 -410l225 -409h-151z" />
<glyph unicode="&#xac;" horiz-adv-x="1241" d="M104 737v154h1035v-553h-154v399h-881z" />
<glyph unicode="&#xad;" horiz-adv-x="680" d="M66 543v133h548v-133h-548z" />
<glyph unicode="&#xae;" horiz-adv-x="1530" d="M-18 758q0 156 59.5 299.5t169.5 253.5t253.5 169.5t299.5 59.5t299.5 -59.5t253.5 -169.5t169.5 -253.5t59.5 -299.5q0 -157 -59.5 -300.5t-169.5 -253.5t-253.5 -169.5t-299.5 -59.5t-299.5 59.5t-253.5 169.5t-169.5 253.5t-59.5 300.5zM72 758q0 -138 52.5 -264.5 t150.5 -224.5t224.5 -151t264.5 -53t264.5 53t224.5 151t150.5 224.5t52.5 264.5t-52.5 264.5t-150.5 224.5t-224.5 150.5t-264.5 52.5t-264.5 -52.5t-224.5 -150.5t-150.5 -224.5t-52.5 -264.5zM467 245v1025h360q143 0 237.5 -85t94.5 -212q0 -128 -94 -212.5t-238 -84.5 h-4l336 -431h-176l-373 478v-478h-143zM610 799h217q85 0 137 47.5t52 126.5q0 78 -52.5 126t-136.5 48h-217v-348z" />
<glyph unicode="&#xaf;" horiz-adv-x="993" d="M209 1270v164h573v-164h-573z" />
<glyph unicode="&#xb0;" horiz-adv-x="819" d="M82 1213q0 134 96.5 230.5t231.5 96.5q134 0 230.5 -96.5t96.5 -230.5q0 -135 -96 -231.5t-231 -96.5t-231.5 96.5t-96.5 231.5zM205 1213q0 -85 60 -145t145 -60q84 0 144 60t60 145q0 84 -60 144t-144 60q-85 0 -145 -60t-60 -144z" />
<glyph unicode="&#xb1;" horiz-adv-x="1241" d="M105 0v154h1033v-154h-1033zM105 651v154h440v363h153v-363h440v-154h-440v-364h-153v364h-440z" />
<glyph unicode="&#xb2;" horiz-adv-x="680" d="M55 758v71l383 310q82 69 82 153q0 73 -50 118.5t-130 45.5q-79 0 -128.5 -48.5t-49.5 -125.5v-20h-99v20q0 107 79 176.5t198 69.5q120 0 199 -66.5t79 -169.5q0 -117 -123 -215l-307 -248h418v-71h-551z" />
<glyph unicode="&#xb3;" horiz-adv-x="680" d="M45 977h99q0 -68 56.5 -114t139.5 -46q85 0 141 45.5t56 114.5q0 73 -57 114.5t-158 41.5h-19v71h19q83 0 130.5 34.5t47.5 94.5q0 54 -45 88.5t-115 34.5q-68 0 -113.5 -35.5t-45.5 -89.5v-14h-99v14q0 83 74.5 140t183.5 57q110 0 184 -56t74 -139q0 -51 -30 -93.5 t-80 -65.5q66 -24 106.5 -78t40.5 -119q0 -99 -84.5 -165.5t-210.5 -66.5t-210.5 66.5t-84.5 165.5z" />
<glyph unicode="&#xb4;" horiz-adv-x="768" d="M109 1383l471 163l53 -143l-471 -164z" />
<glyph unicode="&#xb5;" horiz-adv-x="1245" d="M152 -410v1528h155v-672q0 -133 93.5 -232.5t222.5 -99.5q128 0 221.5 99.5t93.5 232.5v672h156v-1118h-156v122q-58 -70 -140.5 -108.5t-174.5 -38.5t-175 38.5t-141 108.5v-532h-155z" />
<glyph unicode="&#xb6;" horiz-adv-x="1155" d="M86 1147q0 152 108 260.5t260 108.5h164v-1680h-164v943q-152 0 -260 108t-108 260zM823 -164v1680h164v-1680h-164z" />
<glyph unicode="&#xb8;" horiz-adv-x="664" d="M186 -362h146q44 0 73 25t29 63q0 36 -27.5 62t-66.5 26h-84v186h143v-68q77 -16 128 -73.5t51 -132.5q0 -91 -69 -151t-177 -60h-146v123z" />
<glyph unicode="&#xb9;" horiz-adv-x="680" d="M66 1364l274 152h86v-758h-98v666l-217 -121z" />
<glyph unicode="&#xba;" horiz-adv-x="756" d="M28 717v102h697v-102h-697zM53 1249q0 136 93.5 229t230.5 93t230 -93t93 -229t-93 -228.5t-230 -92.5t-230.5 92.5t-93.5 228.5zM164 1249q0 -95 60.5 -157t152.5 -62t152.5 62.5t60.5 156.5t-60.5 156.5t-152.5 62.5t-152.5 -62t-60.5 -157z" />
<glyph unicode="&#xbb;" horiz-adv-x="870" d="M86 205l225 409l-221 410h148l225 -410l-225 -409h-152zM422 205h151l226 409l-226 410h-147l221 -410z" />
<glyph unicode="&#xbc;" horiz-adv-x="1702" d="M118 1350l254 166h111v-834h-123v680l-176 -114zM264 0l996 1516h135l-996 -1516h-135zM897 180v91l375 563h123v-551h104v-103h-104v-180h-123v180h-375zM1040 283h232v348z" />
<glyph unicode="&#xbd;" horiz-adv-x="1702" d="M118 1350l254 166h111v-834h-123v680l-176 -114zM264 0l995 1516h135l-995 -1516h-135zM1008 0v75l323 359q84 94 84 153q0 71 -40 114.5t-103 43.5t-101 -45.5t-38 -122.5v-22h-123v22q0 120 74 195.5t188 75.5q110 0 188 -75.5t78 -185.5q0 -98 -105 -209l-249 -276 h336v-102h-512z" />
<glyph unicode="&#xbe;" horiz-adv-x="1702" d="M108 934h123q0 -59 45 -105.5t109 -46.5q67 0 112 45t45 107q0 73 -47 116t-127 43h-22v103h22q64 0 101 34.5t37 94.5q0 45 -37 79t-84 34q-48 0 -83.5 -34t-35.5 -81v-14h-123v14q0 88 72 152.5t170 64.5q99 0 171.5 -64t72.5 -151q0 -117 -95 -176q58 -28 94.5 -87 t36.5 -128q0 -107 -81.5 -180.5t-198.5 -73.5q-115 0 -196 74.5t-81 179.5zM303 0l996 1516h135l-996 -1516h-135zM938 180v91l375 563h123v-551h104v-103h-104v-180h-123v180h-375zM1081 283h232v348z" />
<glyph unicode="&#xbf;" horiz-adv-x="1210" d="M135 92q0 207 149 355q136 136 320 155v82h164v-221h-102q-153 0 -260 -109t-107 -262t108.5 -262t262.5 -109q112 0 209 66v-166q-96 -43 -209 -43q-100 0 -196.5 38t-172.5 107q-166 151 -166 369zM604 872v246h164v-246h-164z" />
<glyph unicode="&#xc0;" horiz-adv-x="1516" d="M33 0l643 1516h164l643 -1516h-178l-199 471h-696l-199 -471h-178zM471 614h573l-286 677zM506 1812l53 144l471 -164l-53 -143z" />
<glyph unicode="&#xc1;" horiz-adv-x="1516" d="M33 0l643 1516h164l643 -1516h-178l-199 471h-696l-199 -471h-178zM471 614h573l-286 677zM481 1792l471 164l54 -144l-471 -163z" />
<glyph unicode="&#xc2;" horiz-adv-x="1516" d="M33 0l643 1516h164l643 -1516h-178l-199 471h-696l-199 -471h-178zM401 1800l295 125h123l295 -125l-61 -141l-295 125l-297 -125zM471 614h573l-286 677z" />
<glyph unicode="&#xc3;" horiz-adv-x="1516" d="M33 0l643 1516h164l643 -1516h-178l-199 471h-696l-199 -471h-178zM406 1736q32 72 90.5 111t134.5 39q32 0 78 -12l141 -45q21 -7 35 -7q63 0 90 64l133 -57q-32 -72 -90.5 -111t-134.5 -39q-41 0 -78 12l-141 45q-23 7 -35 7q-65 0 -90 -64zM471 614h573l-286 677z" />
<glyph unicode="&#xc4;" horiz-adv-x="1516" d="M33 0l643 1516h164l643 -1516h-178l-199 471h-696l-199 -471h-178zM471 614h573l-286 677zM510 1679v164h164v-164h-164zM838 1679v164h164v-164h-164z" />
<glyph unicode="&#xc5;" horiz-adv-x="1516" d="M33 0l643 1516h164l643 -1516h-178l-199 471h-696l-199 -471h-178zM471 614h573l-286 677zM502 1946q0 106 75 181t181 75t181 -75t75 -181t-75 -181t-181 -75t-181 75t-75 181zM625 1946q0 -56 39 -95t94 -39t94 39t39 95q0 55 -39 94t-94 39t-94 -39t-39 -94z" />
<glyph unicode="&#xc6;" horiz-adv-x="2032" d="M41 0l934 1516h975v-143h-709v-513h627v-143h-627v-574h709v-143h-873v471h-553l-291 -471h-192zM612 614h465v757z" />
<glyph unicode="&#xc7;" horiz-adv-x="1665" d="M86 757q0 159 59.5 302t170.5 253q112 110 260 169t313 59q237 0 430 -116.5t291 -317.5h-186q-87 136 -229 213.5t-306 77.5q-128 0 -245 -48.5t-207 -138.5t-138.5 -207.5t-48.5 -245.5t48.5 -245t138.5 -207t207 -138.5t245 -48.5q164 0 306 77.5t229 213.5h186 q-98 -201 -291 -317.5t-430 -116.5q-164 0 -312 59t-260 169q-111 110 -171 253t-60 301zM708 -362h146q45 0 73.5 24.5t28.5 63.5q0 37 -27.5 62.5t-66.5 25.5h-84v186h144v-68q76 -16 127 -74t51 -132q0 -91 -69 -151t-177 -60h-146v123z" />
<glyph unicode="&#xc8;" horiz-adv-x="1098" d="M147 0v1516h873v-143h-709v-513h627v-143h-627v-574h709v-143h-873zM309 1812l53 144l472 -164l-54 -143z" />
<glyph unicode="&#xc9;" horiz-adv-x="1098" d="M147 0v1516h873v-143h-709v-513h627v-143h-627v-574h709v-143h-873zM303 1792l471 164l53 -144l-471 -163z" />
<glyph unicode="&#xca;" horiz-adv-x="1098" d="M147 0v1516h873v-143h-709v-513h627v-143h-627v-574h709v-143h-873zM219 1800l295 125h123l295 -125l-62 -141l-295 125l-296 -125z" />
<glyph unicode="&#xcb;" horiz-adv-x="1098" d="M147 0v1516h873v-143h-709v-513h627v-143h-627v-574h709v-143h-873zM342 1679v164h164v-164h-164zM670 1679v164h164v-164h-164z" />
<glyph unicode="&#xcc;" horiz-adv-x="463" d="M-20 1812l53 144l471 -164l-53 -143zM150 0v1516h163v-1516h-163z" />
<glyph unicode="&#xcd;" horiz-adv-x="463" d="M-43 1792l471 164l53 -144l-471 -163zM150 0v1516h163v-1516h-163z" />
<glyph unicode="&#xce;" horiz-adv-x="463" d="M-125 1800l295 125h123l295 -125l-62 -141l-295 125l-297 -125zM150 0v1516h163v-1516h-163z" />
<glyph unicode="&#xcf;" horiz-adv-x="463" d="M-14 1679v164h164v-164h-164zM150 0v1516h163v-1516h-163zM313 1679v164h164v-164h-164z" />
<glyph unicode="&#xd0;" horiz-adv-x="1618" d="M110 717v143h115v656h471q179 0 332 -57t266 -165q107 -104 164.5 -242t57.5 -294t-57.5 -294t-164.5 -242q-113 -108 -266 -165t-332 -57h-471v717h-115zM389 143h307q292 0 477 179q86 84 132.5 196.5t46.5 239.5t-46.5 239.5t-132.5 197.5q-185 178 -477 178h-307 v-513h328v-143h-328v-574z" />
<glyph unicode="&#xd1;" horiz-adv-x="1516" d="M147 0v1516h246l811 -1342v1342h164v-1516h-246l-811 1342v-1342h-164zM408 1736q32 72 90.5 111t134.5 39q32 0 78 -12l141 -45q21 -7 35 -7q65 0 90 64l133 -57q-32 -72 -90.5 -111t-134.5 -39q-41 0 -78 12l-141 45q-23 7 -35 7q-65 0 -90 -64z" />
<glyph unicode="&#xd2;" horiz-adv-x="1780" d="M86 757q0 159 59.5 302t170.5 253q112 110 260 169t313 59t313 -59t260 -169q111 -110 170.5 -253t59.5 -302q0 -158 -60 -301t-171 -253q-112 -110 -260 -169t-312 -59t-312 59t-260 169q-111 110 -171 253t-60 301zM250 757q0 -128 48.5 -245t138.5 -207t207 -138.5 t245 -48.5t245 48.5t207 139.5q90 90 138.5 207t48.5 244q0 128 -48.5 245t-138.5 207q-90 91 -207 139.5t-245 48.5t-245 -48.5t-207 -138.5t-138.5 -207.5t-48.5 -245.5zM637 1812l53 144l471 -164l-53 -143z" />
<glyph unicode="&#xd3;" horiz-adv-x="1780" d="M86 757q0 159 59.5 302t170.5 253q112 110 260 169t313 59t313 -59t260 -169q111 -110 170.5 -253t59.5 -302q0 -158 -60 -301t-171 -253q-112 -110 -260 -169t-312 -59t-312 59t-260 169q-111 110 -171 253t-60 301zM250 757q0 -128 48.5 -245t138.5 -207t207 -138.5 t245 -48.5t245 48.5t207 139.5q90 90 138.5 207t48.5 244q0 128 -48.5 245t-138.5 207q-90 91 -207 139.5t-245 48.5t-245 -48.5t-207 -138.5t-138.5 -207.5t-48.5 -245.5zM614 1792l471 164l54 -144l-471 -163z" />
<glyph unicode="&#xd4;" horiz-adv-x="1780" d="M86 757q0 159 59.5 302t170.5 253q112 110 260 169t313 59t313 -59t260 -169q111 -110 170.5 -253t59.5 -302q0 -158 -60 -301t-171 -253q-112 -110 -260 -169t-312 -59t-312 59t-260 169q-111 110 -171 253t-60 301zM250 757q0 -128 48.5 -245t138.5 -207t207 -138.5 t245 -48.5t245 48.5t207 139.5q90 90 138.5 207t48.5 244q0 128 -48.5 245t-138.5 207q-90 91 -207 139.5t-245 48.5t-245 -48.5t-207 -138.5t-138.5 -207.5t-48.5 -245.5zM532 1800l295 125h123l295 -125l-61 -141l-295 125l-297 -125z" />
<glyph unicode="&#xd5;" horiz-adv-x="1780" d="M86 757q0 159 59.5 302t170.5 253q112 110 260 169t313 59t313 -59t260 -169q111 -110 170.5 -253t59.5 -302q0 -158 -60 -301t-171 -253q-112 -110 -260 -169t-312 -59t-312 59t-260 169q-111 110 -171 253t-60 301zM250 757q0 -128 48.5 -245t138.5 -207t207 -138.5 t245 -48.5t245 48.5t207 139.5q90 90 138.5 207t48.5 244q0 128 -48.5 245t-138.5 207q-90 91 -207 139.5t-245 48.5t-245 -48.5t-207 -138.5t-138.5 -207.5t-48.5 -245.5zM539 1736q32 72 90.5 111t134.5 39q32 0 78 -12l141 -45q21 -7 35 -7q65 0 90 64l133 -57 q-32 -72 -90.5 -111t-134.5 -39q-41 0 -78 12l-141 45q-23 7 -35 7q-65 0 -90 -64z" />
<glyph unicode="&#xd6;" horiz-adv-x="1780" d="M86 757q0 159 59.5 302t170.5 253q112 110 260 169t313 59t313 -59t260 -169q111 -110 170.5 -253t59.5 -302q0 -158 -60 -301t-171 -253q-112 -110 -260 -169t-312 -59t-312 59t-260 169q-111 110 -171 253t-60 301zM250 757q0 -128 48.5 -245t138.5 -207t207 -138.5 t245 -48.5t245 48.5t207 139.5q90 90 138.5 207t48.5 244q0 128 -48.5 245t-138.5 207q-90 91 -207 139.5t-245 48.5t-245 -48.5t-207 -138.5t-138.5 -207.5t-48.5 -245.5zM643 1679v164h164v-164h-164zM971 1679v164h164v-164h-164z" />
<glyph unicode="&#xd7;" horiz-adv-x="1241" d="M135 242l377 378l-377 377l109 109l377 -377l376 377l111 -109l-379 -377l379 -378l-111 -109l-376 377l-377 -377z" />
<glyph unicode="&#xd8;" horiz-adv-x="1778" d="M86 757q0 159 59.5 302t170.5 253q112 110 260 169t313 59q140 0 252 -34.5t221 -110.5l107 121h190l-188 -215q221 -224 221 -544q0 -158 -59.5 -301.5t-170.5 -252.5q-112 -110 -260 -169t-313 -59q-134 0 -260 39.5t-209 107.5l-109 -122h-192l188 212 q-107 109 -164 249.5t-57 295.5zM250 757q0 -115 43 -226t121 -200l844 949q-172 117 -369 117q-128 0 -245 -48.5t-207 -138.5t-138.5 -207.5t-48.5 -245.5zM520 235q72 -54 171 -85.5t198 -31.5q128 0 245 48.5t207 138.5t138.5 207t48.5 245q0 254 -166 429z" />
<glyph unicode="&#xd9;" horiz-adv-x="1341" d="M147 518v998h164v-998q0 -182 98.5 -291t260.5 -109q161 0 259.5 109.5t98.5 290.5v998h164v-998q0 -235 -148.5 -389t-373.5 -154q-226 0 -374.5 154t-148.5 389zM418 1812l53 144l471 -164l-53 -143z" />
<glyph unicode="&#xda;" horiz-adv-x="1341" d="M147 518v998h164v-998q0 -182 98.5 -291t260.5 -109q161 0 259.5 109.5t98.5 290.5v998h164v-998q0 -235 -148.5 -389t-373.5 -154q-226 0 -374.5 154t-148.5 389zM395 1792l471 164l54 -144l-471 -163z" />
<glyph unicode="&#xdb;" horiz-adv-x="1341" d="M147 518v998h164v-998q0 -182 98.5 -291t260.5 -109q161 0 259.5 109.5t98.5 290.5v998h164v-998q0 -235 -148.5 -389t-373.5 -154q-226 0 -374.5 154t-148.5 389zM313 1800l295 125h123l295 -125l-61 -141l-295 125l-297 -125z" />
<glyph unicode="&#xdc;" horiz-adv-x="1341" d="M147 518v998h164v-998q0 -182 98.5 -291t260.5 -109q161 0 259.5 109.5t98.5 290.5v998h164v-998q0 -235 -148.5 -389t-373.5 -154q-226 0 -374.5 154t-148.5 389zM424 1679v164h164v-164h-164zM752 1679v164h164v-164h-164z" />
<glyph unicode="&#xdd;" horiz-adv-x="1212" d="M20 1516h189l397 -711l397 711h189l-504 -902v-614h-164v614zM330 1792l471 164l53 -144l-471 -163z" />
<glyph unicode="&#xde;" horiz-adv-x="1212" d="M147 0v1516h164v-267h356q221 0 356.5 -125t135.5 -325t-135.5 -325.5t-356.5 -125.5h-356v-348h-164zM311 492h356q144 0 236 86.5t92 220.5t-92 220.5t-236 86.5h-356v-614z" />
<glyph unicode="&#xdf;" d="M147 0v1110q0 194 134 317q122 113 286 113q184 0 308 -115.5t124 -285.5q0 -190 -177 -320q106 -48 174.5 -155t68.5 -228q0 -193 -136.5 -327t-332.5 -134q-89 0 -166 25v180q31 -19 80 -32t90 -13q125 0 213 87.5t88 213.5t-87 213.5t-210 87.5h-180v144h150 q108 0 185 76t77 182q0 111 -78 184.5t-191 73.5q-105 0 -180.5 -82t-75.5 -205v-1110h-164z" />
<glyph unicode="&#xe0;" horiz-adv-x="1399" d="M82 559q0 119 45 226.5t129 189.5q82 81 189.5 124.5t224.5 43.5q125 0 237 -50t195 -142v167h155v-1118h-155v167q-83 -92 -195 -142t-237 -50q-117 0 -224.5 43.5t-189.5 124.5q-84 82 -129 189.5t-45 226.5zM238 559q0 -192 123 -318.5t309 -126.5t309 127t123 318 t-123 318t-309 127t-309 -126.5t-123 -318.5zM446 1403l54 143l471 -163l-53 -144z" />
<glyph unicode="&#xe1;" horiz-adv-x="1399" d="M82 559q0 119 45 226.5t129 189.5q82 81 189.5 124.5t224.5 43.5q125 0 237 -50t195 -142v167h155v-1118h-155v167q-83 -92 -195 -142t-237 -50q-117 0 -224.5 43.5t-189.5 124.5q-84 82 -129 189.5t-45 226.5zM238 559q0 -192 123 -318.5t309 -126.5t309 127t123 318 t-123 318t-309 127t-309 -126.5t-123 -318.5zM416 1383l471 163l53 -143l-471 -164z" />
<glyph unicode="&#xe2;" horiz-adv-x="1399" d="M82 559q0 119 45 226.5t129 189.5q82 81 189.5 124.5t224.5 43.5q125 0 237 -50t195 -142v167h155v-1118h-155v167q-83 -92 -195 -142t-237 -50q-117 0 -224.5 43.5t-189.5 124.5q-84 82 -129 189.5t-45 226.5zM238 559q0 -192 123 -318.5t309 -126.5t309 127t123 318 t-123 318t-309 127t-309 -126.5t-123 -318.5zM332 1391l295 125h123l294 -125l-61 -141l-295 125l-297 -125z" />
<glyph unicode="&#xe3;" horiz-adv-x="1399" d="M82 559q0 119 45 226.5t129 189.5q82 81 189.5 124.5t224.5 43.5q125 0 237 -50t195 -142v167h155v-1118h-155v167q-83 -92 -195 -142t-237 -50q-117 0 -224.5 43.5t-189.5 124.5q-84 82 -129 189.5t-45 226.5zM238 559q0 -192 123 -318.5t309 -126.5t309 127t123 318 t-123 318t-309 127t-309 -126.5t-123 -318.5zM340 1327q32 72 90.5 111t134.5 39q32 0 78 -12l141 -45q23 -7 35 -7q65 0 90 64l133 -57q-32 -72 -90.5 -111t-134.5 -39q-41 0 -78 12l-141 45q-21 7 -35 7q-65 0 -90 -64z" />
<glyph unicode="&#xe4;" horiz-adv-x="1399" d="M82 559q0 119 45 226.5t129 189.5q82 81 189.5 124.5t224.5 43.5q125 0 237 -50t195 -142v167h155v-1118h-155v167q-83 -92 -195 -142t-237 -50q-117 0 -224.5 43.5t-189.5 124.5q-84 82 -129 189.5t-45 226.5zM238 559q0 -192 123 -318.5t309 -126.5t309 127t123 318 t-123 318t-309 127t-309 -126.5t-123 -318.5zM452 1270v164h164v-164h-164zM780 1270v164h164v-164h-164z" />
<glyph unicode="&#xe5;" horiz-adv-x="1399" d="M82 559q0 119 45 226.5t129 189.5q82 81 189.5 124.5t224.5 43.5q125 0 237 -50t195 -142v167h155v-1118h-155v167q-83 -92 -195 -142t-237 -50q-117 0 -224.5 43.5t-189.5 124.5q-84 82 -129 189.5t-45 226.5zM238 559q0 -192 123 -318.5t309 -126.5t309 127t123 318 t-123 318t-309 127t-309 -126.5t-123 -318.5zM442 1536q0 106 75 181t181 75t181 -75t75 -181t-75 -181t-181 -75t-181 75t-75 181zM565 1536q0 -55 39 -94t94 -39t94 39t39 94q0 56 -38.5 94.5t-94.5 38.5q-55 0 -94 -38.5t-39 -94.5z" />
<glyph unicode="&#xe6;" horiz-adv-x="2370" d="M82 559q0 119 45 226.5t129 189.5q82 81 189.5 124.5t224.5 43.5q125 0 237 -50t195 -142v167h155v-171q74 89 193.5 142.5t244.5 53.5q251 0 418 -168q170 -171 170 -438h-1020q5 -181 128 -302t304 -121q132 0 236 68t157 187h168q-64 -182 -215.5 -288t-345.5 -106 q-124 0 -246.5 55.5t-191.5 140.5v-171h-155v167q-83 -92 -195 -142t-237 -50q-117 0 -224.5 43.5t-189.5 124.5q-84 82 -129 189.5t-45 226.5zM238 559q0 -192 123 -318.5t309 -126.5t309 127t123 318t-123 318t-309 127t-309 -126.5t-123 -318.5zM1277 676h836 q-30 142 -145.5 235t-272.5 93t-272.5 -93t-145.5 -235z" />
<glyph unicode="&#xe7;" horiz-adv-x="1325" d="M82 559q0 249 170 416q171 168 430 168q183 0 324 -85t217 -239h-174q-123 185 -367 185q-195 0 -319.5 -125t-124.5 -320t124.5 -320t319.5 -125q115 0 207.5 44.5t151.5 127.5h176q-80 -150 -218.5 -230.5t-316.5 -80.5q-259 0 -430 168q-170 167 -170 416zM510 -362 h146q44 0 73 25t29 63q0 36 -27.5 62t-66.5 26h-84v186h143v-68q76 -16 127 -73.5t51 -132.5q0 -91 -69 -151t-176 -60h-146v123z" />
<glyph unicode="&#xe8;" horiz-adv-x="1331" d="M82 559q0 120 44 227t126 189q82 81 190 124.5t228 43.5q250 0 417 -168q170 -172 170 -438h-1019q5 -181 128 -302t304 -121q131 0 235.5 68t156.5 187h168q-64 -182 -215 -288t-345 -106q-120 0 -228 43.5t-190 124.5q-82 82 -126 189t-44 227zM252 676h835 q-30 142 -145.5 235t-271.5 93q-157 0 -272.5 -93t-145.5 -235zM414 1403l53 143l471 -163l-53 -144z" />
<glyph unicode="&#xe9;" horiz-adv-x="1331" d="M82 559q0 120 44 227t126 189q82 81 190 124.5t228 43.5q250 0 417 -168q170 -172 170 -438h-1019q5 -181 128 -302t304 -121q131 0 235.5 68t156.5 187h168q-64 -182 -215 -288t-345 -106q-120 0 -228 43.5t-190 124.5q-82 82 -126 189t-44 227zM252 676h835 q-30 142 -145.5 235t-271.5 93q-157 0 -272.5 -93t-145.5 -235zM389 1383l471 163l53 -143l-471 -164z" />
<glyph unicode="&#xea;" horiz-adv-x="1331" d="M82 559q0 120 44 227t126 189q82 81 190 124.5t228 43.5q250 0 417 -168q170 -172 170 -438h-1019q5 -181 128 -302t304 -121q131 0 235.5 68t156.5 187h168q-64 -182 -215 -288t-345 -106q-120 0 -228 43.5t-190 124.5q-82 82 -126 189t-44 227zM252 676h835 q-30 142 -145.5 235t-271.5 93q-157 0 -272.5 -93t-145.5 -235zM309 1391l295 125h123l295 -125l-61 -141l-295 125l-297 -125z" />
<glyph unicode="&#xeb;" horiz-adv-x="1331" d="M82 559q0 120 44 227t126 189q82 81 190 124.5t228 43.5q250 0 417 -168q170 -172 170 -438h-1019q5 -181 128 -302t304 -121q131 0 235.5 68t156.5 187h168q-64 -182 -215 -288t-345 -106q-120 0 -228 43.5t-190 124.5q-82 82 -126 189t-44 227zM252 676h835 q-30 142 -145.5 235t-271.5 93q-157 0 -272.5 -93t-145.5 -235zM418 1270v164h164v-164h-164zM745 1270v164h164v-164h-164z" />
<glyph unicode="&#xec;" horiz-adv-x="410" d="M-47 1403l53 143l471 -163l-53 -144zM123 0v1118h164v-1118h-164z" />
<glyph unicode="&#xed;" horiz-adv-x="410" d="M-70 1383l471 163l54 -143l-471 -164zM123 0v1118h164v-1118h-164z" />
<glyph unicode="&#xee;" horiz-adv-x="410" d="M-152 1391l295 125h123l295 -125l-61 -141l-295 125l-297 -125zM123 0v1118h164v-1118h-164z" />
<glyph unicode="&#xef;" horiz-adv-x="410" d="M-41 1270v164h164v-164h-164zM123 0v1118h164v-1118h-164zM287 1270v164h164v-164h-164z" />
<glyph unicode="&#xf0;" horiz-adv-x="1341" d="M86 532q0 111 45 214.5t128 184.5q80 79 180 122t202 43q81 0 138 -16l-119 149h-338v143h227l-115 144h203l113 -144h309v-143h-196l264 -338q61 -79 94.5 -173.5t33.5 -185.5q0 -112 -45.5 -214.5t-129.5 -181.5q-83 -77 -189.5 -119t-220.5 -42t-220.5 42t-188.5 119 q-85 79 -130 181t-45 215zM246 532q0 -174 123.5 -294t300.5 -120t301.5 120.5t124.5 293.5q0 174 -125 297t-301 123t-300 -122.5t-124 -297.5z" />
<glyph unicode="&#xf1;" horiz-adv-x="1249" d="M141 0v1118h156v-124q147 149 356 149q207 0 339 -139.5t132 -356.5v-647h-155v647q0 156 -92.5 256.5t-235.5 100.5q-149 0 -246.5 -100.5t-97.5 -256.5v-647h-156zM252 1327q32 72 90.5 111t134.5 39q32 0 78 -12l141 -45q23 -7 35 -7q65 0 90 64l133 -57 q-32 -72 -90.5 -111t-134.5 -39q-41 0 -78 12l-141 45q-21 7 -35 7q-65 0 -90 -64z" />
<glyph unicode="&#xf2;" horiz-adv-x="1341" d="M82 559q0 120 44 227t126 189q82 81 190 124.5t228 43.5t227.5 -43.5t189.5 -124.5q82 -82 126 -189t44 -227t-44 -227t-126 -189q-82 -81 -189.5 -124.5t-227.5 -43.5t-228 43.5t-190 124.5q-82 82 -126 189t-44 227zM238 559q0 -192 123 -318.5t309 -126.5t309 127 t123 318t-123 318t-309 127t-309 -126.5t-123 -318.5zM418 1403l53 143l471 -163l-53 -144z" />
<glyph unicode="&#xf3;" horiz-adv-x="1341" d="M82 559q0 120 44 227t126 189q82 81 190 124.5t228 43.5t227.5 -43.5t189.5 -124.5q82 -82 126 -189t44 -227t-44 -227t-126 -189q-82 -81 -189.5 -124.5t-227.5 -43.5t-228 43.5t-190 124.5q-82 82 -126 189t-44 227zM238 559q0 -192 123 -318.5t309 -126.5t309 127 t123 318t-123 318t-309 127t-309 -126.5t-123 -318.5zM395 1383l471 163l54 -143l-471 -164z" />
<glyph unicode="&#xf4;" horiz-adv-x="1341" d="M82 559q0 120 44 227t126 189q82 81 190 124.5t228 43.5t227.5 -43.5t189.5 -124.5q82 -82 126 -189t44 -227t-44 -227t-126 -189q-82 -81 -189.5 -124.5t-227.5 -43.5t-228 43.5t-190 124.5q-82 82 -126 189t-44 227zM238 559q0 -192 123 -318.5t309 -126.5t309 127 t123 318t-123 318t-309 127t-309 -126.5t-123 -318.5zM313 1391l295 125h123l295 -125l-61 -141l-295 125l-297 -125z" />
<glyph unicode="&#xf5;" horiz-adv-x="1341" d="M82 559q0 120 44 227t126 189q82 81 190 124.5t228 43.5t227.5 -43.5t189.5 -124.5q82 -82 126 -189t44 -227t-44 -227t-126 -189q-82 -81 -189.5 -124.5t-227.5 -43.5t-228 43.5t-190 124.5q-82 82 -126 189t-44 227zM238 559q0 -192 123 -318.5t309 -126.5t309 127 t123 318t-123 318t-309 127t-309 -126.5t-123 -318.5zM319 1327q32 72 90.5 111t135.5 39q32 0 78 -12l141 -45q21 -7 35 -7q63 0 90 64l133 -57q-32 -72 -90.5 -111t-134.5 -39q-41 0 -78 12l-141 45q-23 7 -35 7q-65 0 -90 -64z" />
<glyph unicode="&#xf6;" horiz-adv-x="1341" d="M82 559q0 120 44 227t126 189q82 81 190 124.5t228 43.5t227.5 -43.5t189.5 -124.5q82 -82 126 -189t44 -227t-44 -227t-126 -189q-82 -81 -189.5 -124.5t-227.5 -43.5t-228 43.5t-190 124.5q-82 82 -126 189t-44 227zM238 559q0 -192 123 -318.5t309 -126.5t309 127 t123 318t-123 318t-309 127t-309 -126.5t-123 -318.5zM424 1270v164h164v-164h-164zM752 1270v164h164v-164h-164z" />
<glyph unicode="&#xf7;" horiz-adv-x="1241" d="M104 543v153h1035v-153h-1035zM518 102v205h205v-205h-205zM518 932v205h205v-205h-205z" />
<glyph unicode="&#xf8;" horiz-adv-x="1337" d="M80 559q0 120 44 227t126 189q82 81 190 124.5t228 43.5q182 0 336 -100l63 75h164l-133 -155q75 -79 116 -184t41 -220q0 -120 -44 -227t-126 -189q-82 -81 -189.5 -124.5t-227.5 -43.5q-186 0 -328 98l-61 -73h-164l129 149q-78 78 -121 186t-43 224zM236 559 q0 -170 102 -297l572 670q-104 72 -242 72q-186 0 -309 -126.5t-123 -318.5zM433 182q44 -31 108 -49.5t127 -18.5q186 0 309 126.5t123 318.5q0 82 -26.5 159t-73.5 132z" />
<glyph unicode="&#xf9;" horiz-adv-x="1245" d="M129 471v647h156v-647q0 -155 92.5 -256t234.5 -101q149 0 246.5 100.5t97.5 256.5v647h156v-1118h-156v124q-147 -149 -356 -149q-207 0 -339 139.5t-132 356.5zM371 1403l53 143l471 -163l-53 -144z" />
<glyph unicode="&#xfa;" horiz-adv-x="1245" d="M129 471v647h156v-647q0 -155 92.5 -256t234.5 -101q149 0 246.5 100.5t97.5 256.5v647h156v-1118h-156v124q-147 -149 -356 -149q-207 0 -339 139.5t-132 356.5zM346 1383l471 163l53 -143l-471 -164z" />
<glyph unicode="&#xfb;" horiz-adv-x="1245" d="M129 471v647h156v-647q0 -155 92.5 -256t234.5 -101q149 0 246.5 100.5t97.5 256.5v647h156v-1118h-156v124q-147 -149 -356 -149q-207 0 -339 139.5t-132 356.5zM266 1391l295 125h123l295 -125l-61 -141l-295 125l-297 -125z" />
<glyph unicode="&#xfc;" horiz-adv-x="1245" d="M129 471v647h156v-647q0 -155 92.5 -256t234.5 -101q149 0 246.5 100.5t97.5 256.5v647h156v-1118h-156v124q-147 -149 -356 -149q-207 0 -339 139.5t-132 356.5zM375 1270v164h164v-164h-164zM702 1270v164h164v-164h-164z" />
<glyph unicode="&#xfd;" horiz-adv-x="1098" d="M14 1118h170l365 -917l364 917h170l-526 -1296q-48 -121 -160 -188.5t-262 -67.5h-61v139h61q209 0 283 184l47 115zM272 1383l471 163l54 -143l-471 -164z" />
<glyph unicode="&#xfe;" horiz-adv-x="1397" d="M139 -410v1926h156v-565q83 92 195 142t237 50q117 0 224.5 -43.5t189.5 -124.5q84 -82 129 -189.5t45 -226.5t-45 -226.5t-129 -189.5q-82 -81 -189.5 -124.5t-224.5 -43.5q-125 0 -237 50t-195 142v-577h-156zM295 559q0 -191 123 -318t309 -127t309 126.5t123 318.5 t-123 318.5t-309 126.5t-309 -127t-123 -318z" />
<glyph unicode="&#xff;" horiz-adv-x="1098" d="M14 1118h170l365 -917l364 917h170l-526 -1296q-48 -121 -160 -188.5t-262 -67.5h-61v139h61q209 0 283 184l47 115zM301 1270v164h164v-164h-164zM629 1270v164h164v-164h-164z" />
<glyph unicode="&#x152;" horiz-adv-x="2445" d="M76 758q0 158 59.5 301.5t170.5 252.5q112 110 260 169t313 59q195 0 358 -77.5t281 -225.5v279h872v-143h-709v-513h627v-143h-627v-574h709v-143h-872v278q-247 -303 -639 -303q-164 0 -312 59t-260 169q-111 110 -171 253.5t-60 301.5zM240 758q0 -128 48.5 -245.5 t138.5 -207.5t207 -138.5t245 -48.5t245 48.5t207 139.5q90 90 138.5 207t48.5 245q0 127 -48.5 244t-138.5 208q-90 90 -207 138.5t-245 48.5t-245 -48.5t-207 -138.5t-138.5 -207t-48.5 -245z" />
<glyph unicode="&#x153;" horiz-adv-x="2329" d="M61 559q0 120 44 227t126 189q82 81 190 124.5t228 43.5q160 0 292 -75.5t222 -219.5q88 144 220.5 219.5t295.5 75.5q251 0 418 -168q170 -171 170 -438h-1020q5 -181 128 -302t304 -121q131 0 236 68t157 187h168q-64 -182 -215.5 -288t-345.5 -106q-165 0 -297.5 77 t-216.5 222q-76 -136 -216.5 -217.5t-299.5 -81.5q-120 0 -228 43.5t-190 124.5q-82 82 -126 189t-44 227zM217 559q0 -192 123 -318.5t309 -126.5t309 127t123 318t-123 318t-309 127t-309 -126.5t-123 -318.5zM1261 676h836q-30 142 -145.5 235t-272.5 93t-272.5 -93 t-145.5 -235z" />
<glyph unicode="&#x178;" horiz-adv-x="1212" d="M20 1516h189l397 -711l397 711h189l-504 -902v-614h-164v614zM358 1679v164h164v-164h-164zM686 1679v164h164v-164h-164z" />
<glyph unicode="&#x2c6;" horiz-adv-x="1028" d="M158 1391l295 125h122l295 -125l-61 -141l-295 125l-297 -125z" />
<glyph unicode="&#x2dc;" horiz-adv-x="899" d="M98 1327q32 72 90.5 111t135.5 39q32 0 77 -12l142 -45q21 -7 35 -7q63 0 90 64l133 -57q-32 -72 -90.5 -111t-135.5 -39q-41 0 -77 12l-142 45q-21 7 -34 7q-64 0 -91 -64z" />
<glyph unicode="&#x2000;" horiz-adv-x="1101" />
<glyph unicode="&#x2001;" horiz-adv-x="2202" />
<glyph unicode="&#x2002;" horiz-adv-x="1101" />
<glyph unicode="&#x2003;" horiz-adv-x="2202" />
<glyph unicode="&#x2004;" horiz-adv-x="734" />
<glyph unicode="&#x2005;" horiz-adv-x="550" />
<glyph unicode="&#x2006;" horiz-adv-x="367" />
<glyph unicode="&#x2007;" horiz-adv-x="367" />
<glyph unicode="&#x2008;" horiz-adv-x="275" />
<glyph unicode="&#x2009;" horiz-adv-x="440" />
<glyph unicode="&#x200a;" horiz-adv-x="122" />
<glyph unicode="&#x2010;" horiz-adv-x="680" d="M66 543v133h548v-133h-548z" />
<glyph unicode="&#x2011;" horiz-adv-x="680" d="M66 543v133h548v-133h-548z" />
<glyph unicode="&#x2012;" horiz-adv-x="680" d="M66 543v133h548v-133h-548z" />
<glyph unicode="&#x2013;" horiz-adv-x="1024" d="M0 547v137h1024v-137h-1024z" />
<glyph unicode="&#x2014;" horiz-adv-x="2048" d="M0 547v137h2048v-137h-2048z" />
<glyph unicode="&#x2018;" horiz-adv-x="719" d="M256 1126v144q0 118 84 202t203 84h20v-184q-43 0 -72.5 -29.5t-29.5 -72.5v-144h-205z" />
<glyph unicode="&#x2019;" horiz-adv-x="719" d="M154 1085v185q43 0 72.5 30t29.5 73v143h205v-143q0 -119 -84.5 -203.5t-202.5 -84.5h-20z" />
<glyph unicode="&#x201a;" horiz-adv-x="725" d="M158 0q44 0 73 29t29 73v144h205v-144q0 -116 -85.5 -201t-201.5 -85h-20v184z" />
<glyph unicode="&#x201c;" horiz-adv-x="1028" d="M166 1126v144q0 116 85.5 201t201.5 85h20v-184q-44 0 -73 -29t-29 -73v-144h-205zM575 1126v144q0 116 85.5 201t201.5 85h20v-184q-44 0 -73 -29t-29 -73v-144h-205z" />
<glyph unicode="&#x201d;" horiz-adv-x="991" d="M127 1085v185q45 0 73.5 29t28.5 74v143h205v-143q0 -117 -85.5 -202.5t-201.5 -85.5h-20zM537 1085v185q45 0 73.5 29t28.5 74v143h205v-143q0 -117 -85.5 -202.5t-201.5 -85.5h-20z" />
<glyph unicode="&#x201e;" horiz-adv-x="1028" d="M146 0q44 0 73 29t29 73v144h205v-144q0 -116 -85.5 -201t-201.5 -85h-20v184zM555 0q44 0 73 29t29 73v144h205v-144q0 -116 -85.5 -201t-201.5 -85h-20v184z" />
<glyph unicode="&#x2022;" horiz-adv-x="1241" d="M330 672q0 120 85.5 205.5t205.5 85.5q119 0 204.5 -85.5t85.5 -205.5t-85.5 -205.5t-204.5 -85.5q-120 0 -205.5 85.5t-85.5 205.5z" />
<glyph unicode="&#x2026;" horiz-adv-x="2048" d="M246 0v246h205v-246h-205zM922 0v246h204v-246h-204zM1597 0v246h205v-246h-205z" />
<glyph unicode="&#x202f;" horiz-adv-x="440" />
<glyph unicode="&#x2039;" horiz-adv-x="514" d="M70 614l225 410h147l-221 -410l225 -409h-151z" />
<glyph unicode="&#x203a;" horiz-adv-x="514" d="M66 205l225 409l-221 410h147l225 -410l-225 -409h-151z" />
<glyph unicode="&#x205f;" horiz-adv-x="550" />
<glyph unicode="&#x2122;" horiz-adv-x="2048" d="M108 1335v160h742v-160h-275v-700h-176v700h-291zM946 635v860h226l209 -637l208 637h226v-860h-160v645l-195 -645h-161l-193 637v-637h-160z" />
<glyph unicode="&#xe000;" horiz-adv-x="1120" d="M0 0v1120h1120v-1120h-1120z" />
</font>
</defs>
</svg>
